<?xml version="1.0" encoding="utf-8"?>
<!-- Generator: Adobe Illustrator 24.3.0, SVG Export Plug-In . SVG Version: 6.00 Build 0)  -->
<svg version="1.1" id="Layer_2" xmlns="http://www.w3.org/2000/svg" xmlns:xlink="http://www.w3.org/1999/xlink" x="0px" y="0px"
	 viewBox="0 0 265.9 71.8" style="enable-background:new 0 0 265.9 71.8;" xml:space="preserve">
<style type="text/css">
	.st0{fill:#ED3035;}
</style>
<g>
	<g>
		<path class="st0" d="M89.2,39.5h3.3l7.7,13.9h0.1l7.7-13.9h3.3v22.8h-2.7V44h-0.1l-8.1,14.3h-0.3L92,43.9h-0.1v18.3h-2.7V39.5z"/>
		<path class="st0" d="M114.4,54c0-4.8,2.4-8.6,7.5-8.6c4.7,0,7.2,3.5,7.2,8.1v1.3h-11.8c0,3.2,1.6,5.3,4.7,5.3
			c2.2,0,3.7-0.9,4.2-2.7h2.7c-0.5,3.1-3.4,5.1-6.9,5.1C117,62.6,114.4,58.9,114.4,54z M126.3,52.5c0-2.6-1.4-4.7-4.4-4.7
			c-3.1,0-4.5,2.1-4.6,4.7H126.3z"/>
		<path class="st0" d="M130.7,54c0-4.9,2.4-8.6,7.1-8.6c2.5,0,4.1,1.1,5,2.6h0.1v-9.8h2.7v24.1h-2.4l-0.4-2.3h-0.1
			c-0.9,1.5-2.5,2.6-5,2.6C133.4,62.6,130.8,59.3,130.7,54z M143,54c0-3.3-1.4-6.1-4.7-6.1c-3.4,0-4.7,2.8-4.7,6.1
			c0,3.3,1.3,6.2,4.7,6.2C141.6,60.1,143,57.3,143,54z"/>
		<path class="st0" d="M149,39h3.1v3.2H149V39z M149.1,45.7h2.7v16.6h-2.7V45.7z"/>
		<path class="st0" d="M154.4,54c0-4.9,2.3-8.7,7.1-8.7c2.5,0,4.1,1.1,5,2.6h0.1l0.4-2.3h2.4v16.6H167l-0.2-2.3h-0.1
			c-0.8,1.5-2.6,2.6-5.1,2.6C156.7,62.6,154.4,58.8,154.4,54z M166.7,54c0-3.3-1.4-6.2-4.7-6.2c-3.4,0-4.7,2.8-4.7,6.2
			c0,3.4,1.3,6.1,4.7,6.1C165.2,60.1,166.7,57.3,166.7,54z"/>
		<path class="st0" d="M181.7,51c0-7,3.4-11.7,10-11.7c5.5,0,8.8,3.1,9.2,7.6h-2.9c-0.3-2.8-2.4-4.9-6.3-4.9c-5.3,0-7,4.5-7,9.1
			s1.7,9,7,9c4.5,0,6.9-3.1,6.9-7.1h-6.2v-2.6h8.9v1.9c0,6.3-3.5,10.3-9.6,10.3C185.1,62.6,181.7,57.9,181.7,51z"/>
		<path class="st0" d="M204.4,45.7h2.4l0.2,2.8h0.1c0.7-1.9,2.3-3,4.4-3h1.5v2.6h-1.3c-3.2,0-4.6,2.2-4.6,6.1v8.1h-2.7V45.7z"/>
		<path class="st0" d="M213.7,54c0-4.8,2.4-8.6,7.5-8.6c5.1,0,7.5,3.8,7.5,8.6c0,4.7-2.3,8.6-7.5,8.6S213.7,58.8,213.7,54z
			 M225.9,54c0-3.6-1.4-6.2-4.7-6.2c-3.4,0-4.7,2.6-4.7,6.2c0,3.6,1.4,6.1,4.7,6.1C224.6,60.1,225.9,57.6,225.9,54z"/>
		<path class="st0" d="M231.1,56.4V45.7h2.7V56c0,2.6,1.2,4.1,3.8,4.1c2.8,0,4.4-2,4.4-5.3v-9.1h2.7v16.6h-2.4l-0.2-2.6h-0.1
			c-0.9,1.7-2.6,2.9-5.1,2.9C233.3,62.5,231.1,60.2,231.1,56.4z"/>
		<path class="st0" d="M248.3,45.7h2.4L251,48h0.1c0.9-1.5,2.5-2.6,5-2.6c4.4,0,7,3.3,7.1,8.6c0,4.9-2.4,8.6-7.1,8.6
			c-2.5,0-4.1-1.1-5-2.6H251v9.8h-2.7V45.7z M260.4,54c0-3.3-1.3-6.2-4.7-6.2c-3.3,0-4.7,2.9-4.7,6.2c0,3.3,1.4,6.1,4.7,6.1
			C259.1,60.1,260.4,57.3,260.4,54z"/>
	</g>
	<path class="st0" d="M34.5,1.4C16.4,1.4,1.8,16.1,1.8,34.2S16.4,67,34.5,67s32.8-14.7,32.8-32.8S52.6,1.4,34.5,1.4z M56.3,48.8
		H25.4c-0.5,0-1-0.3-1.2-0.8L11.6,21.5c-0.4-0.9,0.2-1.9,1.2-1.9h30.9c0.5,0,1,0.3,1.2,0.8l12.7,26.5C57.9,47.7,57.3,48.8,56.3,48.8
		z"/>
	<g>
		<path class="st0" d="M117.6,13.3c-5.6,0-8.6,3.9-8.6,9.2c0,5.2,2.9,9.1,8.6,9.1c5.7,0,8.6-3.9,8.6-9.1
			C126.2,17.2,123.2,13.3,117.6,13.3z M117.6,27.6c-2.6,0-3.9-1.7-3.9-5.1s1.4-5.2,3.9-5.2c2.6,0,3.9,1.8,3.9,5.2
			C121.6,25.8,120.2,27.6,117.6,27.6z"/>
		<path class="st0" d="M151.4,6.1h-4c-0.1,0-0.3,0.1-0.3,0.3V31c0,0.1,0.1,0.3,0.3,0.3h4c0.1,0,0.3-0.1,0.3-0.3V6.4
			C151.7,6.2,151.6,6.1,151.4,6.1z"/>
		<path class="st0" d="M183.6,13.6h-1c-2.2,0-3.8,1-4.6,2.7h-0.1l-0.3-2.5c0-0.1-0.1-0.2-0.3-0.2h-3.4c-0.1,0-0.3,0.1-0.3,0.3V31
			c0,0.1,0.1,0.3,0.3,0.3h3.8c0.1,0,0.3-0.1,0.3-0.3v-8.4c0-3.2,1.6-5.1,4.3-5.1h1.3c0.2,0,0.3-0.1,0.3-0.3v-3.3
			C183.9,13.7,183.7,13.6,183.6,13.6z"/>
		<path class="st0" d="M195.8,27.3H194c-1.6,0-2.3-0.7-2.3-2.4v-7.2c0-0.1,0.1-0.3,0.3-0.3h3.7c0.1,0,0.3-0.1,0.3-0.3v-3.4
			c0-0.1-0.1-0.3-0.3-0.3H192c-0.1,0-0.3-0.1-0.3-0.3V9.2c0-0.1-0.1-0.3-0.3-0.3h-3.9c-0.1,0-0.3,0.1-0.3,0.3v4.1
			c0,0.1-0.1,0.3-0.3,0.3h-1.9c-0.1,0-0.3,0.1-0.3,0.3v3.4c0,0.1,0.1,0.3,0.3,0.3h1.8c0.1,0,0.3,0.1,0.3,0.3v8.2
			c0,3.1,1.6,5.4,5.5,5.4h3.1c0.1,0,0.3-0.1,0.3-0.3v-3.5C196.1,27.4,196,27.3,195.8,27.3z"/>
		<path class="st0" d="M144,13.6h-4c-0.1,0-0.3,0.1-0.3,0.3v9.5c0,2.5-1.5,4-3.6,4c-2.3,0-3.3-1.3-3.3-3.5v-10
			c0-0.1-0.1-0.3-0.3-0.3h-4c-0.1,0-0.3,0.1-0.3,0.3v11.2c0,3.6,2.9,6.6,6.5,6.5c2.3,0,3.9-1,4.9-2.2c0,0,0,0,0,0
			c0-0.1,0.1-0.1,0.1-0.1h0c0,0,0.1,0,0.1,0.1l0.3,1.7c0,0.1,0.1,0.2,0.3,0.2h3.6c0.1,0,0.3-0.1,0.3-0.3V13.9
			C144.3,13.7,144.1,13.6,144,13.6z"/>
		<path class="st0" d="M170.4,13.6h-3.6c-0.1,0-0.2,0.1-0.3,0.2l-0.4,1.6c0,0.1-0.1,0.1-0.1,0.1c0,0-0.1,0-0.1-0.1h0
			c-0.9-1.1-2.3-2.1-4.8-2.1c-4.6,0-7.3,3.9-7.3,9.1c0,5.2,2.7,9.1,7.3,9.1c2.5,0,4-1,4.9-2.2c0,0,0,0,0,0c0,0,0.1-0.1,0.1-0.1
			c0,0,0.1,0,0.1,0.1l0.4,1.6c0,0.1,0.1,0.2,0.3,0.2h3.6c0.1,0,0.3-0.1,0.3-0.3V13.9C170.7,13.7,170.5,13.6,170.4,13.6z M162.4,27.6
			c-2.9,0-3.9-2.3-3.9-5.1c0-2.8,1-5.1,3.9-5.1c2.9,0,3.9,2.4,3.9,5.1C166.3,25.2,165.2,27.6,162.4,27.6z"/>
		<path class="st0" d="M213.8,13.6h-3.6c-0.1,0-0.2,0.1-0.3,0.2l-0.4,1.6c0,0.1-0.1,0.1-0.1,0.1c0,0-0.1,0-0.1-0.1h0
			c-0.9-1.1-2.3-2.1-4.8-2.1c-4.6,0-7.3,3.9-7.3,9.1c0,5.2,2.7,9.1,7.3,9.1c2.5,0,4-1,4.9-2.2c0,0,0,0,0,0c0,0,0.1-0.1,0.1-0.1
			c0,0,0.1,0,0.1,0.1l0.4,1.6c0,0.1,0.1,0.2,0.3,0.2h3.6c0.1,0,0.3-0.1,0.3-0.3V13.9C214.1,13.7,214,13.6,213.8,13.6z M205.8,27.6
			c-2.9,0-3.9-2.3-3.9-5.1c0-2.8,1-5.1,3.9-5.1c2.9,0,3.9,2.4,3.9,5.1C209.7,25.2,208.7,27.6,205.8,27.6z"/>
		<path class="st0" d="M103.4,21.9c0-0.1,0-0.1,0.1-0.2c2.5-1.2,4.1-3.6,4.1-6.8c0-4-2.9-7.4-8-7.4H89.4c-0.1,0-0.3,0.1-0.3,0.3V31
			c0,0.1,0.1,0.3,0.3,0.3h4.1c0.1,0,0.3-0.1,0.3-0.3v-8.2c0-0.1,0.1-0.3,0.3-0.3h4.4c0.1,0,0.2,0.1,0.2,0.1l4,8.4
			c0,0.1,0.1,0.1,0.2,0.1h0.6h4.2h0.3c0.1,0,0.2-0.1,0.2-0.2V31c0,0,0-0.1,0-0.1L103.4,21.9z M93.8,18.2v-6.2c0-0.1,0.1-0.3,0.3-0.3
			h5.3c2.3,0,3.4,1.5,3.4,3.3c0,1.9-1,3.5-3.4,3.5h-5.3C93.9,18.4,93.8,18.3,93.8,18.2z"/>
	</g>
</g>
</svg>
