<svg xmlns="http://www.w3.org/2000/svg" width="171" height="112.447" viewBox="0 0 171 112.447">
  <g id="Group_6" data-name="Group 6" transform="translate(-375 -24)">
    <g id="Group_5" data-name="Group 5" transform="translate(453.661 39.048)">
      <path id="Path_31" data-name="Path 31" d="M312.31,741.615c7.258-2.151,14.443-4.484,21.041-8.311a1.074,1.074,0,0,1,.9.065c7.732,4.518,15.98,7.922,24.254,11.27,2.511,1.016,5.036,2,7.555,2.993-11.412-7.243-21.441-15.74-26.928-28.408-2.246,2.012-4.428,4.127-6.776,6.039-7.634,6.214-16.277,10.662-25.4,14.22-.465.181-23.3,7.5-29.146,9.14a6.431,6.431,0,0,0,.789,0c6.538-1.175,13.074-2.363,19.615-3.522C298.753,745,312.119,741.672,312.31,741.615Z" transform="translate(-277.805 -719.225)"/>
    </g>
    <g id="Group_1" data-name="Group 1" transform="translate(378.144 24)">
      <path id="Path_1" data-name="Path 1" d="M154.818,710.733c.175-.151-5.934-2.3-6.373-2.5-5.187-2.411-10.427-4.724-15.5-7.355a139.606,139.606,0,0,1-34.335-24.508c-1.1-1.086-2.154-2.213-3.281-3.373a5.966,5.966,0,0,0-.276.54,61.153,61.153,0,0,1-8.3,15.432c-9.089,12.591-20.409,22.856-33.185,31.573-2.5,1.7-5.117,3.227-7.777,4.894.343-.109.6-.174.839-.27,4.273-1.694,8.552-3.373,12.815-5.092,15.451-6.228,30.835-12.6,45.247-21.064a1.447,1.447,0,0,1,1.179.026c1.1.547,2.128,1.22,3.207,1.8a157.782,157.782,0,0,0,25.955,10.639l2.821.921c0,.1,26.447,7.228,37.278,9.315,9.357,1.8,18.753,3.407,28.135,5.081,1.575.281,3.167.471,4.751.7C190.033,722.681,172.117,717.708,154.818,710.733Z" transform="translate(-45.794 -672.992)" fill="#da002d"/>
    </g>
    <g id="Group_4" data-name="Group 4" transform="translate(375 83.509)">
      <g id="Group_2" data-name="Group 2">
        <path id="Path_2" data-name="Path 2" d="M273.045,882.742a8.508,8.508,0,0,1-5.032-.194,40.14,40.14,0,0,1-3.887-1.774c-.585-.283-1.1-.472-1.4.322a2.924,2.924,0,0,0,1.34,3.674,14.492,14.492,0,0,0,6.785,1.7c.879-.092,1.765-.142,2.637-.283,4.028-.65,6.818-3.25,7.489-6.941.69-3.8-.85-6.743-4.718-8.844-1.523-.828-3.15-1.465-4.672-2.3a12.626,12.626,0,0,1-2.929-2,3.931,3.931,0,0,1,1.831-6.7,7.409,7.409,0,0,1,4.813.3c.945.376,1.841.876,2.757,1.323.453.221.889.419,1.193-.219a2.85,2.85,0,0,0-1.222-3.667,12.4,12.4,0,0,0-9.151-.793,6.994,6.994,0,0,0-5.362,5.589,7.427,7.427,0,0,0,2.817,7.821,24.847,24.847,0,0,0,3.4,2.049c1.56.832,3.209,1.5,4.734,2.393a4.335,4.335,0,0,1,2.294,4.914A4.535,4.535,0,0,1,273.045,882.742Z" transform="translate(-188.83 -855.822)"/>
        <path id="Path_3" data-name="Path 3" d="M473.133,903.941c-.134-.914-.422-1.023-1.216-.505a18.049,18.049,0,0,1-2.427,1.492,4.678,4.678,0,0,1-6.69-2.828,11.709,11.709,0,0,1,.076-7.726,4.436,4.436,0,0,1,5.113-3.1,7.448,7.448,0,0,1,3.737,1.754c.568.449,1.058.5,1.319-.31a2.561,2.561,0,0,0-.949-2.907c-2.881-2.158-9.655-2.386-12.189,2.806a14.968,14.968,0,0,0-1.3,5.851,36.408,36.408,0,0,0,.471,3.638c.608,2.665,1.97,4.806,4.7,5.723a9.486,9.486,0,0,0,7.8-.715C473.116,906.276,473.385,905.661,473.133,903.941Z" transform="translate(-321.094 -877.774)"/>
        <path id="Path_4" data-name="Path 4" d="M47.171,874.127c-.286.478-.48.789-.661,1.107-1.841,3.226-3.772,6.4-5.478,9.7a3.029,3.029,0,0,1-3.324,1.7c-.2-.011-.4-.058-.608-.083-1.034-.128-1.2-.409-.67-1.326,1.059-1.828,2.157-3.634,3.243-5.446,1.489-2.484,2.96-4.98,4.486-7.441a1.442,1.442,0,0,0,.015-1.746c-2.359-3.909-4.669-7.848-6.993-11.778-.156-.264-.3-.537-.447-.8-.421-.745-.21-1.164.648-1.219.51-.032,1.022-.025,1.532-.044a2.429,2.429,0,0,1,2.458,1.408c1.742,3.163,3.6,6.264,5.41,9.388.165.285.359.553.629.965.4-.679.724-1.224,1.041-1.774q2.5-4.34,5-8.681a3.487,3.487,0,0,1,4.188-1.085.872.872,0,0,1,.219.768,4.465,4.465,0,0,1-.553,1.087c-2.313,3.9-4.615,7.8-6.963,11.678a1.475,1.475,0,0,0,.013,1.755c2.5,4.181,4.943,8.4,7.457,12.574.772,1.282.456,1.871-.877,1.757a13.057,13.057,0,0,0-1.726-.026,1.625,1.625,0,0,1-1.585-1.045c-1.976-3.54-3.981-7.064-5.978-10.592C47.531,874.716,47.4,874.516,47.171,874.127Z" transform="translate(-36.135 -856.375)" fill="#da002d"/>
        <path id="Path_5" data-name="Path 5" d="M333.622,891.461c.6-.514,1.031-.881,1.459-1.253,3.958-3.434,10.707-2.611,12.056,4.181a16.844,16.844,0,0,1-.429,8.769,7.232,7.232,0,0,1-11.756,3.212c-.233-.228-.5-.415-.92-.752V908.1q0,2.556,0,5.112c0,1.816-1.226,2.618-2.891,1.792-.307-.152-.5-.827-.5-1.262-.031-6.714-.022-13.429-.022-20.143,0-1.3.054-2.594-.016-3.885-.062-1.151.638-1.173,1.444-1.151.778.021,1.669-.145,1.579,1.119C333.592,890.194,333.622,890.707,333.622,891.461Zm.41,6.764a6,6,0,0,1-.012,1.224c-.475,2.226.769,3.563,2.358,4.773,2.617,1.992,5.586,1.25,6.829-1.805a11.67,11.67,0,0,0,.091-8.392,3.809,3.809,0,0,0-3.2-2.8,5.121,5.121,0,0,0-4.183,1.493c-1.143.994-2.24,2-1.9,3.77A9.294,9.294,0,0,1,334.032,898.225Z" transform="translate(-234.756 -877.682)"/>
        <path id="Path_6" data-name="Path 6" d="M513.132,898.923c-.153,4.508,2.3,6.9,6.584,6.475a34.411,34.411,0,0,0,4.264-.936c.537-.124,1.123-.776,1.579.054.428.779.1,2.191-.627,2.414A30.975,30.975,0,0,1,520,908.142a10.471,10.471,0,0,1-5.8-.79c-3-1.374-4.176-3.955-4.527-7.028a13.977,13.977,0,0,1,.69-6.743,8.328,8.328,0,0,1,8.535-5.357c5.826.377,7.772,4.625,7.542,9.424-.048,1.009-.722,1.281-1.621,1.278-3.477-.01-6.954,0-10.432,0Zm-.014-2.583h9.831a4.608,4.608,0,0,0-4.251-5.445C515.712,890.568,513.466,892.714,513.118,896.34Z" transform="translate(-355.457 -877.664)"/>
        <path id="Path_7" data-name="Path 7" d="M405.784,896.586c-.073-1.069-.058-1.994-.214-2.89a3.172,3.172,0,0,0-3.069-2.669,9.8,9.8,0,0,0-5.607,1.225c-.528.267-1.095,1.094-1.76.237a2,2,0,0,1,.627-2.61,22.931,22.931,0,0,1,3.814-1.4,10.5,10.5,0,0,1,5.366.1c2.585.683,4.02,2.416,4.111,5.422.131,4.329.065,8.665.026,13,0,.294-.446.643-.76.853-.193.13-.53.04-.8.059-.905.062-1.465-.217-1.308-1.264a8.716,8.716,0,0,0,.006-1.052c-.378.322-.613.529-.854.727a7.757,7.757,0,0,1-7.485,1.514,5.038,5.038,0,0,1-3.849-4.847,5.208,5.208,0,0,1,2.95-5.185,13.749,13.749,0,0,1,5.959-1.216C403.814,896.562,404.7,896.586,405.784,896.586Zm-.058,2.374c-1.785.1-3.376.146-4.958.284a4.58,4.58,0,0,0-1.541.5,2.928,2.928,0,0,0-1.67,3.2,2.77,2.77,0,0,0,2.334,2.49A5.931,5.931,0,0,0,405.583,903a1.03,1.03,0,0,0,.136-.483C405.731,901.4,405.725,900.287,405.725,898.959Z" transform="translate(-277.52 -877.646)"/>
        <path id="Path_8" data-name="Path 8" d="M210.663,896.846a27.947,27.947,0,0,0-.436-3.384,3.087,3.087,0,0,0-2.941-2.287,9.741,9.741,0,0,0-5.79,1.272c-.479.249-1.061.979-1.563.185a1.768,1.768,0,0,1,.195-2.185,2.462,2.462,0,0,1,.733-.541,12.175,12.175,0,0,1,9.011-.981c2.439.675,3.787,2.461,3.849,5.284.095,4.294.028,8.59.049,12.886,0,.674-.315.919-.931.915-.272,0-.546-.013-.818.007-.782.057-1.143-.273-1.072-1.077a9.918,9.918,0,0,0-.046-1.158c-.417.334-.7.56-.976.783a7.7,7.7,0,0,1-7.7,1.278,4.716,4.716,0,0,1-3.351-4.225,5.081,5.081,0,0,1,2.541-5.376,13.164,13.164,0,0,1,6.313-1.389C208.614,896.815,209.5,896.846,210.663,896.846Zm-2.49,2.108a24,24,0,0,0-4.137.912,3.063,3.063,0,0,0-.606,5.322,4.049,4.049,0,0,0,4.46.026c1.376-.807,2.834-1.565,2.694-3.662C210.425,899.184,210.547,899.176,208.173,898.954Z" transform="translate(-145.876 -877.844)" fill="#da002d"/>
        <path id="Path_9" data-name="Path 9" d="M113.523,882.1c-.887,0-1.566-.012-2.245,0-.868.02-1-.546-.991-1.22s-.1-1.441.922-1.5c.136-.008.273,0,.409-.007,1.9-.03,1.9-.03,1.9-1.894,0-.579,0-1.159,0-1.738.011-1.174.2-1.329,1.612-1.331s1.634.182,1.639,1.3c.005,1.155,0,2.309,0,3.663,1.349,0,2.626,0,3.9,0a1.435,1.435,0,0,1,1.307,2.27,1.4,1.4,0,0,1-1.027.43c-1.351.049-2.706.02-4.182.02v2.957q0,3.58,0,7.159a7.713,7.713,0,0,0,.053,1.122c.358,2.389,1.618,3.174,3.869,2.49.411-.125,1.117-.2,1.3.021a2.159,2.159,0,0,1-.53,2.461,5.225,5.225,0,0,1-7.878-4.244c-.122-3.541-.053-7.089-.067-10.635C113.521,883.038,113.523,882.638,113.523,882.1Z" transform="translate(-86.152 -868.367)" fill="#da002d"/>
        <path id="Path_10" data-name="Path 10" d="M163.591,891.913c.725-.79,1.258-1.4,1.816-1.977a4.677,4.677,0,0,1,4.8-1.181,1.074,1.074,0,0,1,.978,1.3,4.942,4.942,0,0,0,0,.613c0,1.555-.037,1.6-1.561,1.142a3.243,3.243,0,0,0-3.47.849c-1.442,1.455-2.505,2.986-2.352,5.268.2,2.987.025,6,.064,9,.011.846-.294,1.206-1.121,1.149-.1-.007-.2,0-.307,0-1.84.02-1.84.02-1.84-1.851q0-7.979,0-15.958c0-1.374.042-1.411,1.456-1.413,1.437,0,1.533.09,1.537,1.479C163.592,890.771,163.591,891.211,163.591,891.913Z" transform="translate(-120.087 -877.903)" fill="#da002d"/>
      </g>
      <g id="Group_3" data-name="Group 3" transform="translate(0.092 40.391)">
        <path id="Path_11" data-name="Path 11" d="M183.266,987.061c-1.6-2.161-1.727-3.755-.414-4.7a3.432,3.432,0,0,1,4.3.431c.983,1.326.432,2.747-1.771,4.5.183.2.367.392.542.591q1.142,1.3,2.28,2.609l.439-.2,1.112-2.463h1.338l-1.6,3.533,2.084,1.937c-1.266.339-1.266.339-3.16-1.158a5.708,5.708,0,0,1-4.874,1.482,2.847,2.847,0,0,1-2.55-2.055,3.2,3.2,0,0,1,1-3.525C182.371,987.7,182.8,987.417,183.266,987.061Zm4.053,4.412-3.167-3.657c-.56.457-1.187.733-1.4,1.2a3.217,3.217,0,0,0-.342,2.155,2.446,2.446,0,0,0,1.648,1.233A3.663,3.663,0,0,0,187.318,991.473Zm-2.812-5.029c.948-.587,2-1.085,1.7-2.335a1.72,1.72,0,0,0-1.285-1,1.933,1.933,0,0,0-1.558.79C182.877,984.982,183.684,985.722,184.506,986.443Z" transform="translate(-133.823 -981.186)"/>
        <path id="Path_12" data-name="Path 12" d="M456.239,979.914v4.747a3.8,3.8,0,0,1,3.747-1.157,2.35,2.35,0,0,1,2.143,2.361c.08,2.069.021,4.144.021,6.281H460.9c0-1.036,0-2.079,0-3.122,0-.818.02-1.636-.006-2.453-.045-1.369-.585-2.027-1.707-2.136-1.477-.143-2.565.488-2.749,1.81a38.335,38.335,0,0,0-.192,3.97c-.021.611,0,1.223,0,1.944l-1.193.064V979.974Z" transform="translate(-318.791 -979.914)"/>
        <path id="Path_13" data-name="Path 13" d="M412.733,995.235h-5.764c-.169,2.858,1.381,3.668,5.355,2.864.27.6.188,1.1-.534,1.159a13.836,13.836,0,0,1-3.518.051c-1.656-.3-2.633-1.822-2.724-3.75-.114-2.413.753-4.162,2.373-4.783C410.8,989.675,413.158,991.807,412.733,995.235Zm-5.754-1.092h4.4c-.019-1.7-.706-2.556-2.017-2.582C407.966,991.532,407.122,992.448,406.979,994.143Z" transform="translate(-285.394 -987.044)"/>
        <path id="Path_14" data-name="Path 14" d="M63.053,995.334H57.212c-.075,2.882,1.352,3.619,5.374,2.857.3.621.146,1.1-.552,1.16a13.044,13.044,0,0,1-3.518.037c-1.874-.376-2.793-2.117-2.7-4.584.081-2.233,1.15-3.7,2.99-4.1a3.411,3.411,0,0,1,4.243,3.031C63.1,994.2,63.053,994.685,63.053,995.334Zm-1.417-1.073c0-1.67-.654-2.533-1.9-2.613-1.435-.093-2.331.826-2.505,2.613Z" transform="translate(-49.496 -987.13)"/>
        <path id="Path_15" data-name="Path 15" d="M90.27,998.1c.274.667.093,1.118-.551,1.164a14.309,14.309,0,0,1-3.519.043c-1.653-.3-2.627-1.828-2.716-3.756-.111-2.414.76-4.16,2.382-4.776,2.883-1.1,5.255,1.058,4.794,4.471H84.9C84.765,998.112,86.267,998.892,90.27,998.1ZM89.3,994.2c.032-1.731-.7-2.632-2.059-2.632-1.4,0-2.289,1.019-2.273,2.632Z" transform="translate(-68.158 -987.049)"/>
        <path id="Path_16" data-name="Path 16" d="M254.284,995.342h-5.86c0,2.9,1.323,3.58,5.4,2.852.306.636.117,1.105-.575,1.162a12.937,12.937,0,0,1-3.42.055c-1.91-.364-2.851-2.055-2.786-4.522.06-2.293,1.133-3.788,3.007-4.19a3.413,3.413,0,0,1,4.228,3.051C254.326,994.22,254.284,994.7,254.284,995.342Zm-1.414-1.076c-.019-1.739-.7-2.593-2.013-2.62-1.391-.029-2.236.884-2.388,2.62Z" transform="translate(-178.484 -987.129)"/>
        <path id="Path_17" data-name="Path 17" d="M329.759,995.325h-5.77c-.341,2.7,1.169,3.5,5.329,2.882.294.646.074,1.1-.606,1.152a13.043,13.043,0,0,1-3.42.044c-1.9-.367-2.837-2.07-2.767-4.536.064-2.286,1.149-3.782,3.026-4.176a3.407,3.407,0,0,1,4.2,2.975A14.605,14.605,0,0,1,329.759,995.325Zm-5.838-1.064h4.4c.083-1.565-.573-2.5-1.8-2.616C325.093,991.513,324.207,992.369,323.921,994.261Z" transform="translate(-229.398 -987.127)"/>
        <path id="Path_18" data-name="Path 18" d="M514.867,991.386h1.308c0,1.831-.015,3.63,0,5.429.022,2.031,1.51,2.953,3.316,2.059a2.436,2.436,0,0,0,1.244-2.408c.025-1.665.007-3.331.007-5.055h1.309c.021.236.052.434.053.632,0,2.589,0,5.178,0,7.85l-1.073.049-.152-.627a16.229,16.229,0,0,1-3.205.795,2.435,2.435,0,0,1-2.791-2.583C514.793,995.524,514.867,993.512,514.867,991.386Z" transform="translate(-359.12 -987.652)"/>
        <path id="Path_19" data-name="Path 19" d="M490.579,991.448h1.271v8.479l-.92.079-.35-1.01a3.8,3.8,0,0,1-3.188,1.2c-1.641-.12-2.585-.913-2.666-2.533-.1-2.036-.025-4.082-.025-6.194H486c0,1.8-.016,3.6,0,5.4.022,2,1.413,2.885,3.233,2.082a2.286,2.286,0,0,0,1.312-2.25c.043-1.364.024-2.729.03-4.094C490.58,992.239,490.579,991.87,490.579,991.448Z" transform="translate(-338.772 -987.694)"/>
        <path id="Path_20" data-name="Path 20" d="M277.567,999.4H276.36v-8.506h.932l.316.966a3.75,3.75,0,0,1,3.765-1.125,2.281,2.281,0,0,1,2.059,2.206c.11,1.764.057,3.538.072,5.308,0,.365,0,.73,0,1.13h-1.28c0-1.844.019-3.64,0-5.435-.026-1.962-1.362-2.893-3.141-2.063a2.639,2.639,0,0,0-1.3,1.634,23.014,23.014,0,0,0-.212,3.755C277.55,997.942,277.567,998.619,277.567,999.4Z" transform="translate(-198.262 -987.131)"/>
        <path id="Path_21" data-name="Path 21" d="M351.846,990.853h.919l.328,1a3.746,3.746,0,0,1,3.763-1.125,2.26,2.26,0,0,1,2.059,2.2c.1,2.13.026,4.268.026,6.441H357.71c0-1.843.019-3.639,0-5.434-.025-1.964-1.358-2.895-3.139-2.066a2.639,2.639,0,0,0-1.3,1.633,23.008,23.008,0,0,0-.212,3.755c-.021.675,0,1.352,0,2.094h-1.207Z" transform="translate(-249.178 -987.131)"/>
        <path id="Path_22" data-name="Path 22" d="M116.788,991.159l-.4.865c-.935-.131-1.8-.312-2.667-.355-.7-.035-1.421.169-1.591.982s.47,1.142,1.07,1.416c.8.366,1.639.664,2.439,1.038a2.117,2.117,0,0,1,1.333,2.3,2.082,2.082,0,0,1-1.783,1.975,16.51,16.51,0,0,1-3.324.05c-.849-.042-1.2-.544-.893-1.463a8.476,8.476,0,0,0,1.7.521,6.286,6.286,0,0,0,2.194-.129,1.446,1.446,0,0,0,.811-1.01,1.5,1.5,0,0,0-.558-1.085,5.466,5.466,0,0,0-1.35-.7c-.526-.239-1.077-.424-1.592-.682a2.072,2.072,0,0,1-1.3-2.213,2.167,2.167,0,0,1,1.794-1.858A6.573,6.573,0,0,1,116.788,991.159Z" transform="translate(-86.63 -987.134)"/>
        <path id="Path_23" data-name="Path 23" d="M385.662,991.4c-1.053,2.75-2.058,5.423-3.121,8.073a1.058,1.058,0,0,1-.852.421c-.335-.01-.864-.186-.962-.429-1.064-2.65-2.06-5.327-3.105-8.076h1.4l2.618,7.233,1.887-5.193c.128-.352.254-.7.386-1.056C384.314,991.289,384.315,991.29,385.662,991.4Z" transform="translate(-266.564 -987.63)"/>
        <path id="Path_24" data-name="Path 24" d="M42.405,980.262l-.279.837c-2.4-.252-2.848.141-2.729,2.495h2.12v1.064H39.385v7.5H38.062v-7.416l-1.538-.154-.106-.268a4.483,4.483,0,0,1,.909-.456.854.854,0,0,0,.746-.9C38.3,980.272,39.7,979.407,42.405,980.262Z" transform="translate(-36.419 -979.935)"/>
        <path id="Path_25" data-name="Path 25" d="M302.422,987.446c.148-.29.216-.621.346-.648,1.053-.217,1.2-1.067,1.446-1.887.069-.226.4-.372.806-.733.053.945.088,1.573.129,2.3h2.395v1.046h-2.408c0,1.9-.033,3.7.014,5.5.023.857.59,1.256,1.438,1.251.3,0,.607,0,.947,0,.289.548.1.828-.514.969a2.42,2.42,0,0,1-3.239-2.483c-.051-1.7-.011-3.4-.011-5.174Z" transform="translate(-215.841 -982.79)"/>
        <path id="Path_26" data-name="Path 26" d="M137.123,986.819c.016.356.028.617.044.982h-2.419c0,2.023-.057,3.949.054,5.865.019.334.715.7,1.165.91a3,3,0,0,0,1.13.027c.285.565.076.838-.528.974a2.422,2.422,0,0,1-3.228-2.5c-.049-1.7-.01-3.4-.01-5.176L132,987.792c.177-.3.27-.669.435-.706.921-.2,1.067-.924,1.292-1.653.088-.285.385-.505.587-.755l.29.162c.035.628.07,1.255.111,1.979Z" transform="translate(-100.887 -983.127)"/>
        <path id="Path_27" data-name="Path 27" d="M232.052,986.837v.984h-2.386c0,1.991-.065,3.886.056,5.77.023.365.733.759,1.2,1,.294.148.725.028,1.119.028.278.586.046.847-.549.977a2.423,2.423,0,0,1-3.214-2.517c-.046-1.7-.01-3.4-.01-5.168l-1.358-.1c.2-.315.3-.675.472-.715.862-.2,1.034-.865,1.258-1.563a3.3,3.3,0,0,1,.61-.836l.288.164.11,1.981Z" transform="translate(-164.907 -983.137)"/>
        <path id="Path_28" data-name="Path 28" d="M434.879,990.879h.921l.295,1.393a3.245,3.245,0,0,1,3.639-1.51l-.137.877c-2.49-.14-3.544,1.194-3.514,3.6.017,1.358,0,2.717,0,4.142h-1.206Z" transform="translate(-305.185 -987.152)"/>
        <path id="Path_29" data-name="Path 29" d="M546.809,999.409h-1.2v-8.493h.941l.257,1.372a3.274,3.274,0,0,1,3.638-1.536c-.04.308-.077.592-.113.87-2.591-.1-3.589,1.26-3.529,3.8C546.834,996.712,546.809,998,546.809,999.409Z" transform="translate(-379.874 -987.151)"/>
        <path id="Path_30" data-name="Path 30" d="M155.177,1003.9h-3.77v-1.133h3.77Z" transform="translate(-113.98 -995.329)"/>
      </g>
    </g>
  </g>
</svg>
