<svg xmlns="http://www.w3.org/2000/svg" xmlns:xlink="http://www.w3.org/1999/xlink" viewBox="0 0 8438.27 2402.32"><defs><clipPath id="a"><path d="M1435.25,743.35Q1298,886,1298,1107q0,221.82,137.25,364.49t349.82,142.72q213.38,0,350.65-142.72c.2-.19.35-.38.54-.59,10.48,36.26,25.27,65.43,44.55,87.17q43.29,48.82,115.39,48.86,83.21,0,167.26-45.91v-49.59a411.72,411.72,0,0,1-56.54,4.31q-81.42,0-108.83-52.54t-27.43-208.29v-91.81q2.33-27.37,2.34-56.1,0-90.72-23.14-168.25l-186.82.5q17.17,75.68,17.17,167.73,0,201-81.13,323.8t-214,122.83q-132,0-213.17-122.83T1490.8,1107q0-200.12,81.1-322.93t213.17-122.83q93,0,160.67,60.17l60-73.34q-97.7-47.41-220.67-47.43-212.6,0-349.82,142.74" style="fill:none"/></clipPath><linearGradient id="b" x1="-36" y1="2667.87" x2="-35" y2="2667.87" gradientTransform="matrix(0, -865.46, -865.46, 0, 2310816.34, -29542.41)" gradientUnits="userSpaceOnUse"><stop offset="0" stop-color="#ce6f04"/><stop offset="1" stop-color="#053083"/></linearGradient></defs><title>logo</title><path d="M340.71,920.11V1360.8q0,107.07,28.35,140.74t118.52,33.7h12.88v53.23H6.54v-53.23H20.27q90.17,0,118.1-33.25t27.91-141.19V479.43q0-107.6-27.91-141T20.27,305H6.54V251.74H500.46V305H487.58q-90.19,0-118.52,33.42t-28.35,141V854H948.49V479.43q0-107.6-28.34-141T801.62,305H788.74V251.74h493.94V305h-13.75q-90.2,0-118.08,33.42t-27.93,141V1360.8q0,107.92,27.93,141.19t118.08,33.25h13.75v53.23H788.74v-53.23h12.88q90.17,0,118.53-33.7t28.34-140.74V920.11ZM2869,850.34q82.62-59.18,158.34-88.35t144.6-29.17q94.64,0,136.39,56.86T3350.06,974V1360.8q0,107.07-27.92,140.74t-118.09,33.7h-13.74v53.23h479.24v-53.23h-12q-91.07,0-119.38-33.25T3509.8,1360.8V977.2q0-216.33-78.26-298.26-76.61-80.13-193.55-80.16-81,0-173.37,49.58T2869,797.09V600.61L2549.13,720.89v12.84l49.06,21.52Q2674.8,788,2692,821.48t17.22,152.25V1360.8q0,107.92-27.91,141.19T2565,1535.24h-15.47v53.23h479.24v-53.23h-11.11q-91.4,0-120-33.25T2869,1360.8V850.34m954.29,699.59q119.47,64.23,293.07,64.27,165,0,265.56-76.09t100.56-201.62q0-90.26-49.89-153-50.77-61.87-183.22-135L4159,998.64q-181.53-100.59-181.5-196,0-65.33,45.94-107t118.06-41.72q68.68,0,103.87,19.08t54.52,42a164.87,164.87,0,0,1,29.64,52.9q10.29,29.91,16.29,71.51l2.58,16.46h69.79V655.7q-148.48-55.1-272.88-55.09-146.76,0-232.57,67.92t-85.81,184.84q0,157.35,233.2,285.43l81.42,44.69q125.16,67.9,157.75,104,32.56,37,32.59,85.13,0,77.4-63.39,132.84t-151.59,55.45q-204.69,0-241.49-236.2l-2.58-17.2h-69.77l20.19,242.4m854.69,0q119.46,64.23,293.07,64.27,165,0,265.56-76.09t100.56-201.62q0-90.26-49.89-153-50.79-61.87-183.22-135l-90.35-49.85q-181.53-100.59-181.49-196,0-65.33,45.93-107t118.06-41.72q68.7,0,103.88,19.08t54.51,42a164.9,164.9,0,0,1,29.65,52.9q10.28,29.91,16.29,71.51l2.58,16.46h69.78V655.7q-148.47-55.1-272.88-55.09-146.74,0-232.56,67.92t-85.8,184.84q0,157.35,233.19,285.43l81.41,44.69q125.16,67.9,157.75,104,32.57,37,32.6,85.13,0,77.4-63.39,132.84t-151.6,55.45q-204.68,0-241.48-236.2l-2.58-17.2h-69.78l20.2,242.4M5766.72,753.22q-74.52,99.33-90.85,267.88h178.31q192.87,0,244.15-19.33t51.26-92.48q0-112.66-56-184t-143.84-71.39q-108.51,0-183,99.36M6041,1507.7q149.51,0,305.09-80.82v80.82q-188.32,106.48-365.43,106.5-213.29,0-350.82-142.72t-137.57-363.65q0-218.32,131.83-362.76t330.26-144.46q178.62,0,277.83,117.81t99.21,328.41v27.51H5674q-.87,29.46-.87,40.68,0,168,105.7,280.3T6041,1507.7m773.49-657.36q82.64-59.18,158.34-88.35t144.6-29.17q94.64,0,136.39,56.86T7295.55,974V1360.8q0,107.07-27.93,140.74t-118.07,33.7h-13.74v53.23h479.24v-53.23h-12q-91.06,0-119.39-33.25t-28.35-141.19V977.2q0-216.33-78.26-298.26-76.6-80.13-193.55-80.16-81,0-173.37,49.58T6814.47,797.09V600.61L6494.63,720.89v12.84l49.06,21.52q76.59,32.71,93.81,66.23t17.22,152.25V1360.8q0,107.92-27.91,141.19t-116.37,33.25H6495v53.23h479.24v-53.23h-11.11q-91.41,0-120-33.25t-28.6-141.19V850.34m954.29,699.59q119.47,64.23,293.07,64.27,165,0,265.57-76.09T8428,1336.49q0-90.26-49.88-153-50.79-61.87-183.22-135l-90.35-49.85Q7923,898.05,7923,802.59q0-65.33,45.94-107T8087,653.86q68.68,0,103.89,19.08t54.52,42a165.42,165.42,0,0,1,29.63,52.9q10.27,29.91,16.29,71.51l2.58,16.46h69.78V655.7q-148.47-55.1-272.88-55.09-146.75,0-232.57,67.92t-85.8,184.84q0,157.35,233.19,285.43l81.42,44.69q125.16,67.9,157.75,104,32.57,37,32.6,85.13,0,77.4-63.4,132.84t-151.59,55.45q-204.69,0-241.48-236.2l-2.58-17.2h-69.78l20.19,242.4" style="fill:#053083"/><path d="M1649.39,968.39S1957,994,1944.31,869.86s-318.21,37.66-340.62,84.87,256.37,516.34,421.38-35.84C2200.5,332,2420.55,95.41,2420.55,95.41s134.94-187.83,159.57,35.25" style="fill:none;stroke:#ce6f04;stroke-width:42.93899917602539px"/><g style="clip-path:url(#a)"><rect x="1298" y="600.61" width="1165.46" height="1013.59" style="fill:url(#b)"/></g><path d="M362.24,2379.88q-70.8,22.42-131.34,22.44-100.36,0-159.2-64T12.85,2165.44q0-106.5,58.55-171T226.29,1930q71.32,0,131.87,18.36l8.67,88.75H344.9l-.85-5.23q-6.78-40.22-36.94-62.39t-78.27-22.15q-66.24,0-109,61.17T77.12,2164.8q0,98.5,44,159.13t115.28,60.6q96,0,111.7-86.51l.86-4.85h21.93Zm917.52-153h175.8l-90.24-210.56Zm-8.4,22.44-26.64,66Q1233,2343.55,1233,2351q0,17.55,29.55,20.15l4.59.57v17.34H1157.79v-17.34h4.59q17.22,0,28.4-12.24t25-46.16L1372.52,1930h18.3L1554,2313.35q15.21,35.67,24.1,47t21.52,11.35h3.73v17.34H1472v-17.34h4.88q17.49,0,23.52-3.44c4-2.3,6-6.83,6-13.55q0-8.33-13.77-41.41l-27.45-64Zm1261.3,64.26q0,36.15-10.9,47.15t-47,11h-4.31v17.34h184.64v-17.34h-4.3q-35.86,0-46.89-11t-11-47.15V1965.72h45.73q51.49,0,71.18,13.77t25.76,53.94l1.16,5.74h22.44l-11.22-104.05a1420.84,1420.84,0,0,1-155.13,8.16h-60a1420.57,1420.57,0,0,1-155.13-8.16l-11.22,104.05h23.46l.86-5.74q6-40.17,25.63-53.94t70.83-13.77h45.49Zm1188.54-150q52.2,0,60.8,8.57,10.61,10.91,10.61,36.09v4.3h22.44V2097.31h-22.44v4.88q0,28.26-12.76,36.15t-58.65,7.94h-66.3V1965.72h61.62q68.49,0,84.7,8.32t21.64,45.84l.87,6h21.93l-8.67-82.63H3543.71v17.34h5.13q29.94,0,38.92,10.84t9,47.3v294.81q0,34.82-9.7,46.48t-38.21,11.67h-5.13v17.34H3655q7.72,0,45.3,2,38.41,2.3,66.73,2.33,26.59,0,81.2,3.79l8.67-96.91H3835l-.86,5.42q-5.46,34-18.22,47.44t-39.4,13.45h-12q-61.07,0-85.29-11.25t-24.23-39.79v-152ZM4763,2159.54h63.4q36.35-11.23,56.35-41.22t20-72.94q0-44.42-27.48-64.58t-88-20.18H4763Zm0,17.34v136.69q0,35.67,9.31,46.93t39.11,11.22H4814v17.34H4651.85v-17.34h4.27q30.23,0,39.5-11.09t9.27-47.06V2018.76q0-35.85-9.27-47t-39.5-11.12h-4.27v-17.34h166.94q79.05,0,111.62,20.37t32.57,70q0,46.53-26,79.09t-78.37,51.52q18.72,11.39,29.81,24.45t40.48,58.85l29.57,48.48q28.64,47.05,41.84,61.34t28.12,14.31h3.44v17.34h-86l-126.67-212.18Zm1212.55,194.84h-4.28q-30,0-39.37-11.22t-9.4-46.93V2018.76q0-35.85,9.4-47t39.37-11.12h4.28v-17.34H5811.35v17.34h4.56q29.92,0,39.21,11.12t9.28,47v294.81q0,36-9.28,47.06t-39.21,11.09h-4.56v17.34h164.24Zm1176.09,30.6.51-383.56q0-35.85,9.26-47t38.65-11.12h5.14v-17.34h-136.7v17.34h4.56q29.94,0,39.21,11.12t9.28,47v253.31l-262.34-328.79h-84.61v17.34h5.17q21.22,0,46.19,33.5l7.92,9.92v309.53q0,36-9,47.06t-38.52,11.09h-3.45v17.34h137.72v-17.34h-5.13q-29.67,0-38.8-11.09t-9.12-47.06V2043Zm1208.14-135.67q0-35.78,9.4-47t39.66-11.19h4v-17.34H8253.72v17.34h5.14q29.35,0,38.63,11.19t9.28,47v101q-36.8,6.12-59.56,6.12-89.67.24-138-53t-48.31-151.93q0-99.51,43.43-160.54t114-61q64.69,0,98.53,36.18,19.53,27.26,20.12,48.65l.87,4.94h21.94l-8.68-88.75Q8290.25,1930,8213.42,1930q-97.14,0-156.45,64.87t-59.29,170.83q0,94.49,49.59,160.51,57.38,76.08,175.4,76.09,63.8,0,137.15-24.48Z" style="fill:#053083"/><line y1="1782.44" x2="8438.27" y2="1782.44" style="fill:none;stroke:#ce6f04;stroke-width:24.48200035095215px"/></svg>